<?xml version="1.0" encoding="utf-8"?>
<!-- Generator: Adobe Illustrator 18.1.0, SVG Export Plug-In . SVG Version: 6.00 Build 0)  -->
<svg version="1.1" id="Capa_1" xmlns="http://www.w3.org/2000/svg" xmlns:xlink="http://www.w3.org/1999/xlink" x="0px" y="0px"
	 viewBox="-284 407.5 25.9 27.4" enable-background="new -284 407.5 25.9 27.4" xml:space="preserve">
<g id="c6_test_tube">
	<path fill="#FFFFFF" d="M-258.4,430c0,0-3.4-6.3-8.9-15.4v-5.3h0.3c0.5,0,0.9-0.4,0.9-0.9c0-0.5-0.4-0.9-0.9-0.9h-8.1
		c-0.5,0-0.9,0.4-0.9,0.9c0,0.5,0.4,0.9,0.9,0.9h0.3v5.3c-5.5,9.1-8.9,15.4-8.9,15.4c-0.9,2.6,0.1,4.9,2.8,4.9h19.6
		C-258.5,434.9-257.6,432.5-258.4,430z M-279.6,426.3c1.1-1.9,5-8.4,6.5-10.8l0.2-0.4h3.8l0.2,0.4c1.4,2.3,5.3,8.8,6.4,10.8
		L-279.6,426.3z M-273.1,424.5c-0.8,0-1.4-0.6-1.4-1.4c0-0.8,0.6-1.4,1.4-1.4c0.8,0,1.4,0.6,1.4,1.4
		C-271.8,423.8-272.4,424.5-273.1,424.5z M-270.3,421.7c-0.6,0-1-0.5-1-1c0-0.6,0.5-1,1-1c0.6,0,1,0.5,1,1
		C-269.2,421.2-269.7,421.7-270.3,421.7z M-269.1,425.3c-0.8,0-1.4-0.6-1.4-1.4c0-0.8,0.6-1.4,1.4-1.4c0.8,0,1.4,0.6,1.4,1.4
		C-267.7,424.6-268.3,425.3-269.1,425.3z"/>
</g>
<g id="Capa_1_1_">
</g>
</svg>
